<?xml version="1.0" standalone="no"?>
<!DOCTYPE svg PUBLIC "-//W3C//DTD SVG 1.1//EN" "http://www.w3.org/Graphics/SVG/1.1/DTD/svg11.dtd" >
<svg>
<metadata>
Created by FontForge 20120731 at Mon Jul 10 14:47:21 2017
 By www
Copyright \(c\) 1998 Elsner+Flake. All Rights Reserved.
</metadata>
<defs>
<font id="AvantGardEF-Bold" horiz-adv-x="500" >
  <font-face 
    font-family="AvantGardEF"
    font-weight="700"
    font-stretch="normal"
    units-per-em="1000"
    panose-1="0 0 0 0 0 0 0 0 0 0"
    ascent="800"
    descent="-200"
    x-height="500"
    cap-height="667"
    bbox="-120 -250 1137 942"
    underline-thickness="20"
    underline-position="-156"
    stemh="150"
    stemv="149"
    unicode-range="U+0020-FB02"
  />
<missing-glyph horiz-adv-x="280" 
 />
    <glyph glyph-name=".notdef" horiz-adv-x="280" 
 />
    <glyph glyph-name="space" unicode=" " horiz-adv-x="250" 
 />
    <glyph glyph-name="exclam" unicode="!" horiz-adv-x="295" 
d="M225 220h-155v447h155v-447zM225 0h-155v153h155v-153z" />
    <glyph glyph-name="quotedbl" unicode="&#x22;" horiz-adv-x="408" 
d="M367 667l-24 -268h-93l-24 268h141zM182 667l-24 -268h-93l-24 268h141z" />
    <glyph glyph-name="numbersign" unicode="#" horiz-adv-x="600" 
d="M604 497l-17 -114h-101l-13 -86h102l-18 -114h-102l-29 -183h-130l29 183h-87l-29 -183h-129l30 183h-102l17 114h102l14 86h-101l17 114h101l28 170h128l-27 -170h87l27 170h130l-27 -170h100zM356 383h-87l-13 -86h87z" />
    <glyph glyph-name="dollar" unicode="$" horiz-adv-x="550" 
d="M479 209c0 -89 -59 -156 -142 -182v-95h-122v91c-45 9 -80 24 -109 61c-27 34 -40 75 -40 118h154c3 -32 16 -64 53 -64c30 0 52 25 52 54c0 56 -71 74 -113 90c-83 31 -141 82 -141 176c0 93 56 158 144 182v91h122v-91c40 -10 64 -23 89 -56c26 -34 37 -63 37 -106v-9
h-140c-2 30 -15 57 -49 57c-30 0 -49 -22 -49 -51c0 -58 78 -77 121 -92c77 -28 133 -90 133 -174z" />
    <glyph glyph-name="percent" unicode="%" horiz-adv-x="800" 
d="M770 148c0 -93 -71 -161 -163 -161c-93 0 -164 65 -164 159c0 95 69 164 164 164c93 0 163 -69 163 -162zM593 667l-280 -667h-106l280 667h106zM357 519c0 -93 -70 -162 -163 -162s-164 66 -164 160s69 163 163 163c92 0 164 -68 164 -161zM666 148c0 33 -25 62 -59 62
s-60 -28 -60 -61c0 -34 25 -63 60 -63s59 28 59 62zM253 519c0 33 -26 61 -59 61c-34 0 -60 -27 -60 -61s25 -62 60 -62c34 0 59 29 59 62z" />
    <glyph glyph-name="ampersand" unicode="&#x26;" horiz-adv-x="660" 
d="M643 393l-51 -124c-13 -32 -29 -62 -50 -89l91 -93l-102 -100l-79 81c-59 -52 -119 -81 -199 -81c-111 0 -223 73 -223 193c0 85 58 139 123 184c-41 41 -63 86 -63 144c0 102 87 172 185 172c94 0 176 -66 176 -164c0 -70 -38 -114 -93 -153l79 -79l49 109h157zM315 517
c0 24 -14 43 -39 43s-41 -21 -41 -45c0 -30 19 -51 38 -72c22 21 42 42 42 74zM352 166l-107 108c-25 -20 -51 -43 -51 -78c0 -43 37 -66 77 -66c34 0 58 11 81 36z" />
    <glyph glyph-name="quoteright" unicode="&#x2019;" horiz-adv-x="262" 
d="M209 477c0 -56 -30 -109 -92 -109h-64v81c27 0 70 -5 70 34v30h-70v154h156v-190z" />
    <glyph glyph-name="parenleft" unicode="(" horiz-adv-x="372" 
d="M345 -187c-46 17 -89 39 -129 68c-117 87 -186 224 -186 369c0 146 69 282 186 369c40 29 83 51 129 68v-149c-101 -54 -158 -178 -158 -289c0 -110 58 -234 158 -287v-149z" />
    <glyph glyph-name="parenright" unicode=")" horiz-adv-x="372" 
d="M342 250c0 -146 -69 -282 -186 -369c-40 -29 -83 -51 -129 -68v149c101 53 158 178 158 289c0 110 -58 234 -158 287v149c46 -17 89 -39 129 -68c117 -87 186 -224 186 -369z" />
    <glyph glyph-name="asterisk" unicode="*" horiz-adv-x="550" 
d="M474 485l-119 -36l75 -99l-84 -64l-73 104l-72 -104l-84 64l78 99l-119 36l33 99l115 -43l-3 126h108l-6 -126l116 43z" />
    <glyph glyph-name="plus" unicode="+" 
d="M467 281h-154v-154h-126v154h-154v117h154v154h126v-154h154v-117z" />
    <glyph glyph-name="comma" unicode="," horiz-adv-x="262" 
d="M209 -36c0 -56 -30 -109 -92 -109h-64v80c26 0 70 -5 70 34v31h-70v153h156v-189z" />
    <glyph glyph-name="hyphen" unicode="-" horiz-adv-x="253" 
d="M253 193h-253v127h253v-127z" />
    <glyph glyph-name="period" unicode="." horiz-adv-x="262" 
d="M209 0h-156v153h156v-153z" />
    <glyph glyph-name="slash" unicode="/" horiz-adv-x="422" 
d="M389 667l-261 -834h-147l261 834h147z" />
    <glyph glyph-name="zero" unicode="0" horiz-adv-x="550" 
d="M524 236c0 -139 -106 -249 -246 -249c-90 0 -189 56 -228 139c-15 31 -24 75 -24 110v194c0 78 29 145 91 193c45 34 103 57 160 57c90 0 190 -59 226 -143c13 -32 21 -73 21 -107v-194zM354 236v195c0 53 -19 99 -79 99c-58 0 -79 -48 -79 -99v-195c0 -52 21 -99 79 -99
c60 0 79 46 79 99z" />
    <glyph glyph-name="one" unicode="1" horiz-adv-x="550" 
d="M383 0h-170v523h-109v144h279v-667z" />
    <glyph glyph-name="two" unicode="2" horiz-adv-x="550" 
d="M511 0h-470v133l26 16c54 33 101 68 146 112c47 46 124 135 124 204c0 38 -24 65 -63 65c-62 0 -74 -55 -77 -106h-162c2 59 6 102 39 153c46 70 125 103 207 103c114 0 226 -71 226 -195c0 -145 -122 -254 -222 -342h226v-143z" />
    <glyph glyph-name="three" unicode="3" horiz-adv-x="547" 
d="M515 196c0 -129 -129 -209 -247 -209c-89 0 -190 37 -226 125c-12 30 -16 54 -19 86h172c10 -40 35 -61 76 -61c40 0 74 23 74 66c0 80 -96 67 -150 67v125c57 0 112 3 112 77c0 29 -14 58 -47 58c-35 0 -51 -24 -52 -57h-168c2 132 102 207 228 207
c106 0 209 -67 209 -182c0 -65 -32 -111 -88 -141c76 -25 126 -78 126 -161z" />
    <glyph glyph-name="four" unicode="4" horiz-adv-x="550" 
d="M540 117h-73v-117h-164v117h-293v125l298 425h159v-416h73v-134zM314 251v209l-134 -209h134z" />
    <glyph glyph-name="five" unicode="5" horiz-adv-x="550" 
d="M527 229c0 -144 -118 -242 -257 -242c-122 0 -230 67 -253 192h171c20 -26 46 -42 79 -42c48 0 90 40 90 88c0 52 -41 88 -92 88c-40 0 -71 -21 -87 -58l-137 34l57 378h369v-144h-238l-15 -91c30 16 56 21 90 21c127 0 223 -97 223 -224z" />
    <glyph glyph-name="six" unicode="6" horiz-adv-x="550" 
d="M536 242c0 -149 -113 -255 -260 -255c-145 0 -263 111 -263 257c0 61 28 129 62 179l166 244h197l-147 -203c14 2 28 4 42 4c124 0 203 -109 203 -226zM365 227c0 52 -41 91 -93 91c-51 0 -91 -37 -91 -89s41 -92 93 -92c51 0 91 39 91 90z" />
    <glyph glyph-name="seven" unicode="7" horiz-adv-x="550" 
d="M496 536l-235 -536h-187l246 523h-259v144h435v-131z" />
    <glyph glyph-name="eight" unicode="8" horiz-adv-x="550" 
d="M518 201c0 -130 -121 -214 -242 -214c-120 0 -244 85 -244 214c0 72 36 137 104 166c-42 34 -65 70 -65 125c0 115 94 188 204 188c108 0 203 -73 203 -186c0 -55 -23 -94 -65 -127c68 -29 105 -93 105 -166zM336 482c0 33 -27 60 -60 60c-37 0 -63 -27 -63 -64
c0 -34 28 -59 61 -59c35 0 62 29 62 63zM348 213c0 41 -31 76 -73 76c-43 0 -73 -33 -73 -75c0 -44 31 -77 75 -77c41 0 71 36 71 76z" />
    <glyph glyph-name="nine" unicode="9" horiz-adv-x="550" 
d="M537 419c0 -63 -13 -102 -47 -155l-170 -264h-194l150 207c-16 -5 -28 -7 -45 -7c-131 0 -217 106 -217 232c0 147 116 248 259 248c152 0 264 -108 264 -261zM366 441c0 50 -43 89 -92 89c-47 0 -91 -40 -91 -88c0 -50 42 -91 92 -91c51 0 91 39 91 90z" />
    <glyph glyph-name="colon" unicode=":" horiz-adv-x="262" 
d="M209 347h-156v153h156v-153zM209 0h-156v153h156v-153z" />
    <glyph glyph-name="semicolon" unicode=";" horiz-adv-x="262" 
d="M209 347h-156v153h156v-153zM209 -36c0 -56 -30 -109 -92 -109h-64v80c26 0 70 -5 70 34v31h-70v153h156v-189z" />
    <glyph glyph-name="less" unicode="&#x3c;" 
d="M467 61l-434 220v106l434 220v-126l-300 -148l299 -148z" />
    <glyph glyph-name="equal" unicode="=" 
d="M467 371h-434v110h434v-110zM467 199h-434v110h434v-110z" />
    <glyph glyph-name="greater" unicode="&#x3e;" 
d="M467 280l-434 -219v125l300 148l-299 148l-1 125l434 -220v-107z" />
    <glyph glyph-name="question" unicode="?" horiz-adv-x="496" 
d="M466 489c0 -148 -163 -183 -171 -277h-156c2 127 154 171 154 258c0 34 -16 56 -52 56c-54 0 -61 -41 -62 -87h-165c-1 6 -1 11 -1 17c0 136 105 224 237 224c109 0 216 -74 216 -191zM295 0h-156v153h156v-153z" />
    <glyph glyph-name="at" unicode="@" horiz-adv-x="733" 
d="M700 384c0 -34 -6 -67 -17 -99c-23 -61 -75 -132 -147 -132c-35 0 -68 20 -78 55c-28 -40 -76 -63 -124 -63c-86 0 -141 75 -141 157c0 96 72 200 175 200c38 0 77 -16 98 -49l7 39l87 -1l-37 -190c-3 -14 -6 -29 -6 -44s5 -32 23 -32c19 0 36 18 46 32
c25 35 37 85 37 127c0 135 -105 216 -234 216c-154 0 -271 -121 -271 -274c0 -103 58 -210 159 -244c36 -12 74 -16 112 -16c62 0 124 10 182 31l20 -78c-64 -22 -137 -31 -204 -31c-94 0 -179 24 -249 90c-68 64 -105 157 -105 250c0 196 155 350 351 350
c172 0 316 -116 316 -294zM444 345c0 37 -26 66 -64 66c-54 0 -88 -56 -88 -105c0 -40 24 -72 66 -72c57 0 86 62 86 111z" />
    <glyph glyph-name="A" unicode="A" horiz-adv-x="660" 
d="M664 0h-185l-32 97h-232l-35 -97h-183l267 667h135zM401 232l-69 228l-70 -228h139z" />
    <glyph glyph-name="B" unicode="B" horiz-adv-x="577" 
d="M548 202c0 -55 -21 -106 -61 -144c-63 -59 -137 -58 -219 -58h-211v667h205c58 0 142 2 190 -37c41 -33 63 -86 63 -138c0 -58 -27 -106 -77 -135c73 -24 110 -78 110 -155zM352 466c0 45 -34 51 -72 51h-60v-104h60c38 0 72 9 72 53zM385 213c0 51 -43 58 -85 58h-80
v-121h80c42 0 85 14 85 63z" />
    <glyph glyph-name="C" unicode="C" horiz-adv-x="736" 
d="M717 249c-38 -158 -175 -262 -337 -262c-195 0 -351 152 -351 348c0 195 155 345 349 345c123 0 230 -57 296 -161c25 -39 36 -60 43 -106h-178c-26 69 -87 117 -162 117c-108 0 -178 -92 -178 -195s70 -198 179 -198c76 0 129 46 161 112h178z" />
    <glyph glyph-name="D" unicode="D" horiz-adv-x="662" 
d="M633 336c0 -191 -115 -336 -314 -336h-262v667h224c78 0 143 -5 210 -48c99 -63 142 -169 142 -283zM463 331c0 106 -47 186 -162 186h-74v-367h73c114 0 163 73 163 181z" />
    <glyph glyph-name="E" unicode="E" horiz-adv-x="469" 
d="M427 0h-370v667h370v-150h-207v-103h201v-150h-201v-114h207v-150z" />
    <glyph glyph-name="F" unicode="F" horiz-adv-x="444" 
d="M421 517h-201v-113h194v-150h-194v-254h-163v667h364v-150z" />
    <glyph glyph-name="G" unicode="G" horiz-adv-x="767" 
d="M739 345c0 -203 -153 -358 -357 -358c-196 0 -353 152 -353 349c0 200 161 344 357 344c145 0 292 -94 332 -237h-191c-30 56 -83 87 -146 87c-106 0 -182 -82 -182 -187c0 -118 72 -207 194 -207c70 0 130 37 147 107h-198v136h395c1 -11 2 -23 2 -34z" />
    <glyph glyph-name="H" unicode="H" horiz-adv-x="671" 
d="M615 0h-170v267h-218v-267h-170v667h170v-250h218v250h170v-667z" />
    <glyph glyph-name="I" unicode="I" horiz-adv-x="283" 
d="M227 0h-170v667h170v-667z" />
    <glyph glyph-name="J" unicode="J" horiz-adv-x="504" 
d="M454 263c0 -64 1 -136 -41 -189c-45 -57 -118 -87 -189 -87c-87 0 -176 44 -208 129c-14 37 -16 58 -16 98h181c2 -35 8 -77 52 -77c49 0 51 46 51 84v446h170v-404z" />
    <glyph glyph-name="K" unicode="K" horiz-adv-x="603" 
d="M610 0h-200l-183 288v-288h-170v667h170v-301l190 301h179l-222 -333z" />
    <glyph glyph-name="L" unicode="L" horiz-adv-x="437" 
d="M424 0h-367v667h170v-517h197v-150z" />
    <glyph glyph-name="M" unicode="M" horiz-adv-x="817" 
d="M760 0h-157l6 501l-144 -501h-113l-144 501l5 -501h-156v667h219l132 -439l132 439h220v-667z" />
    <glyph glyph-name="N" unicode="N" horiz-adv-x="676" 
d="M619 0h-148l-258 405l7 -405h-163v667h146l260 -420l-7 420h163v-667z" />
    <glyph glyph-name="O" unicode="O" horiz-adv-x="761" 
d="M733 333c0 -198 -159 -346 -354 -346s-350 149 -350 345c0 198 153 348 350 348c196 0 354 -149 354 -347zM563 332c0 105 -72 198 -182 198c-109 0 -182 -90 -182 -195c0 -107 73 -198 184 -198c107 0 180 92 180 195z" />
    <glyph glyph-name="P" unicode="P" horiz-adv-x="578" 
d="M558 440c0 -63 -24 -130 -70 -173c-72 -68 -177 -58 -268 -58v-209h-163v667h218c70 0 149 -3 205 -50c53 -44 78 -109 78 -177zM395 438c0 69 -56 79 -113 79h-62v-157h69c55 0 106 14 106 78z" />
    <glyph glyph-name="Q" unicode="Q" horiz-adv-x="765" 
d="M767 -12c-14 -1 -28 -2 -42 -2c-53 0 -118 13 -156 53c-56 -34 -115 -52 -181 -52c-195 0 -359 143 -359 343c0 196 154 350 350 350c198 0 358 -150 358 -350c0 -70 -18 -126 -57 -184c25 -23 56 -24 87 -23v-135zM567 340c0 109 -78 190 -188 190
c-101 0 -164 -73 -179 -168c34 14 58 22 95 22c100 0 188 -69 249 -143c15 36 23 60 23 99zM448 162c-42 55 -98 98 -171 98c-22 0 -39 -4 -60 -11c27 -64 90 -112 160 -112c31 0 46 8 71 25z" />
    <glyph glyph-name="R" unicode="R" horiz-adv-x="586" 
d="M570 0h-195l-155 216v-216h-163v667h211c71 0 148 0 205 -48c54 -45 82 -113 82 -183c0 -104 -60 -191 -166 -209zM391 426c0 67 -49 91 -109 91h-62v-185h60c61 0 111 27 111 94z" />
    <glyph glyph-name="S" unicode="S" horiz-adv-x="516" 
d="M489 191c0 -141 -102 -204 -233 -204c-133 0 -242 68 -242 211v22h171c0 -43 19 -90 69 -90c36 0 66 27 66 64c0 40 -40 59 -71 72c-54 23 -111 41 -157 79c-41 34 -67 85 -67 138c0 125 120 197 234 197c66 0 137 -24 180 -76c36 -43 42 -76 45 -131h-169
c-5 38 -20 64 -61 64c-28 0 -59 -20 -59 -51c0 -35 29 -53 57 -66c109 -50 237 -87 237 -229z" />
    <glyph glyph-name="T" unicode="T" horiz-adv-x="447" 
d="M441 517h-132v-517h-170v517h-132v150h434v-150z" />
    <glyph glyph-name="U" unicode="U" horiz-adv-x="612" 
d="M562 263c0 -79 -9 -146 -66 -204c-51 -52 -117 -72 -189 -72c-71 0 -139 20 -190 71c-61 61 -67 122 -67 205v404h170v-404c0 -63 11 -126 87 -126c79 0 85 61 85 126v404h170v-404z" />
    <glyph glyph-name="V" unicode="V" horiz-adv-x="602" 
d="M612 667l-224 -667h-175l-223 667h176l135 -468l135 468h176z" />
    <glyph glyph-name="W" unicode="W" horiz-adv-x="868" 
d="M861 667l-177 -667h-150l-101 431l-101 -431h-153l-172 667h173l89 -434l99 434h131l98 -436l91 436h173z" />
    <glyph glyph-name="X" unicode="X" horiz-adv-x="644" 
d="M654 0h-193l-144 236l-137 -236h-190l233 355l-206 312h193l114 -191l111 191h192l-204 -315z" />
    <glyph glyph-name="Y" unicode="Y" horiz-adv-x="547" 
d="M557 667l-198 -424v-243h-170v243l-199 424h185l99 -268l100 268h183z" />
    <glyph glyph-name="Z" unicode="Z" horiz-adv-x="457" 
d="M437 0h-420v112l230 405h-230v150h420v-138l-213 -379h213v-150z" />
    <glyph glyph-name="bracketleft" unicode="[" horiz-adv-x="372" 
d="M312 -238c-58 12 -103 18 -152 54c-81 59 -100 135 -100 231v349c0 97 20 170 100 230c48 36 93 46 152 54v-147c-79 -3 -99 -47 -99 -120v-383c0 -73 20 -118 99 -121v-147z" />
    <glyph glyph-name="backslash" unicode="\" 
d="M457 -83h-123l-307 833h124z" />
    <glyph glyph-name="bracketright" unicode="]" horiz-adv-x="372" 
d="M312 47c0 -97 -19 -171 -100 -231c-46 -34 -78 -42 -135 -51c-6 -1 -11 -1 -17 -3v147c79 3 99 48 99 121v383c0 73 -20 117 -99 120v147l15 -2c58 -8 90 -17 137 -52c26 -20 49 -44 66 -72c29 -49 34 -102 34 -158v-349z" />
    <glyph glyph-name="asciicircum" unicode="^" 
d="M494 336h-132l-112 233l-112 -233h-132l161 334h166z" />
    <glyph glyph-name="underscore" unicode="_" 
d="M500 -161h-500v114h500v-114z" />
    <glyph glyph-name="quoteleft" unicode="&#x2018;" horiz-adv-x="262" 
d="M209 368h-156v190c0 56 30 109 92 109h64v-81c-27 0 -70 5 -70 -34v-30h70v-154z" />
    <glyph glyph-name="a" unicode="a" horiz-adv-x="627" 
d="M577 0h-141v54c-29 -58 -96 -71 -155 -71c-157 0 -254 114 -254 267s101 268 257 268c61 0 120 -14 152 -71v53h141v-500zM427 251c0 72 -54 126 -126 126c-71 0 -124 -57 -124 -127c0 -71 54 -127 125 -127c74 0 125 55 125 128z" />
    <glyph glyph-name="b" unicode="b" horiz-adv-x="618" 
d="M591 253c0 -150 -98 -270 -253 -270c-66 0 -102 24 -146 71v-54h-142v667h150v-207c39 41 89 57 144 57c150 0 247 -119 247 -264zM441 250c0 69 -52 127 -123 127c-72 0 -124 -56 -124 -127s50 -127 122 -127s125 56 125 127z" />
    <glyph glyph-name="c" unicode="c" horiz-adv-x="574" 
d="M557 190c-29 -122 -136 -207 -262 -207c-150 0 -268 118 -268 268c0 149 115 266 264 266c128 0 238 -83 265 -210h-151c-19 44 -61 70 -109 70c-73 0 -119 -59 -119 -129s47 -125 119 -125c51 0 83 25 110 67h151z" />
    <glyph glyph-name="d" unicode="d" horiz-adv-x="623" 
d="M573 0h-142v53c-41 -51 -88 -70 -153 -70c-153 0 -251 120 -251 268c0 144 98 266 248 266c59 0 106 -17 148 -59v209h150v-667zM431 252c0 72 -55 125 -126 125c-73 0 -128 -52 -128 -126c0 -73 52 -128 126 -128c75 0 128 55 128 129z" />
    <glyph glyph-name="e" unicode="e" horiz-adv-x="578" 
d="M551 244c0 -14 -1 -27 -4 -41h-375c7 -58 53 -93 110 -93c40 0 64 11 92 39l7 7h152c-43 -101 -130 -173 -243 -173c-147 0 -263 120 -263 266c0 145 112 268 260 268c154 0 264 -122 264 -273zM401 303c-11 55 -59 87 -113 87c-56 0 -100 -31 -112 -87h225z" />
    <glyph glyph-name="f" unicode="f" horiz-adv-x="294" 
d="M277 387h-64v-387h-150v387h-55v113h55v26c0 122 85 154 191 154h23v-113c-56 0 -64 -12 -64 -67h64v-113z" />
    <glyph glyph-name="g" unicode="g" horiz-adv-x="620" 
d="M570 60c0 -69 4 -130 -44 -185c-60 -69 -150 -98 -239 -98c-112 0 -234 52 -250 176h173c16 -36 51 -49 88 -49c83 0 121 57 121 135v16c-25 -49 -98 -72 -149 -72c-144 0 -243 126 -243 264c0 148 102 270 255 270c57 0 110 -18 146 -63v46h142v-440zM420 248
c0 72 -47 129 -121 129c-70 0 -122 -56 -122 -125c0 -71 48 -129 121 -129c72 0 122 54 122 125z" />
    <glyph glyph-name="h" unicode="h" horiz-adv-x="560" 
d="M513 0h-150v273c0 54 -18 104 -80 104c-63 0 -83 -43 -83 -100v-277h-150v667h150v-212c28 46 80 62 131 62c50 0 101 -17 135 -54c49 -52 47 -117 47 -184v-279z" />
    <glyph glyph-name="i" unicode="i" horiz-adv-x="250" 
d="M200 553h-150v114h150v-114zM200 0h-150v500h150v-500z" />
    <glyph glyph-name="j" unicode="j" horiz-adv-x="250" 
d="M200 553h-150v114h150v-114zM200 11c0 -141 -42 -194 -186 -194h-37v113h20c49 0 53 35 53 76v494h150v-489z" />
    <glyph glyph-name="k" unicode="k" horiz-adv-x="511" 
d="M518 500l-189 -219l184 -281h-170l-143 241v-241h-150v667h150v-348l141 181h177z" />
    <glyph glyph-name="l" unicode="l" horiz-adv-x="250" 
d="M200 0h-150v667h150v-667z" />
    <glyph glyph-name="m" unicode="m" horiz-adv-x="864" 
d="M817 0h-150v266c0 55 -7 111 -74 111c-63 0 -82 -49 -82 -104v-273h-150v273c0 52 -16 104 -77 104c-63 0 -84 -48 -84 -104v-273h-150v500h142v-53c32 50 79 70 137 70c67 0 113 -31 145 -89c36 58 91 89 159 89c50 0 93 -16 129 -50c58 -55 55 -118 55 -194v-273z" />
    <glyph glyph-name="n" unicode="n" horiz-adv-x="560" 
d="M513 0h-150v273c0 56 -13 104 -78 104c-63 0 -85 -40 -85 -98v-279h-150v500h142v-53c35 50 76 70 137 70c49 0 99 -17 134 -51c46 -45 50 -91 50 -153v-313z" />
    <glyph glyph-name="o" unicode="o" horiz-adv-x="595" 
d="M567 250c0 -154 -116 -267 -269 -267s-271 109 -271 264c0 156 114 270 270 270c153 0 270 -113 270 -267zM417 250c0 67 -49 127 -119 127s-121 -58 -121 -126c0 -70 49 -128 121 -128c71 0 119 58 119 127z" />
    <glyph glyph-name="p" unicode="p" horiz-adv-x="623" 
d="M594 246c0 -141 -97 -263 -244 -263c-61 0 -109 17 -150 63v-213h-150v667h141v-55c41 53 92 72 158 72c154 0 245 -125 245 -271zM444 250c0 72 -54 127 -126 127c-69 0 -125 -56 -125 -125c0 -71 54 -129 126 -129c71 0 125 56 125 127z" />
    <glyph glyph-name="q" unicode="q" horiz-adv-x="623" 
d="M573 -167h-150v218c-43 -49 -89 -68 -154 -68c-146 0 -242 117 -242 258c0 150 95 276 253 276c62 0 114 -21 151 -72v55h142v-667zM429 249c0 72 -54 128 -127 128c-72 0 -125 -57 -125 -128s56 -126 127 -126c70 0 125 57 125 126z" />
    <glyph glyph-name="r" unicode="r" horiz-adv-x="323" 
d="M317 367c-67 -1 -118 -14 -118 -91v-276h-149v500h142v-53c30 52 66 70 125 70v-150z" />
    <glyph glyph-name="s" unicode="s" horiz-adv-x="445" 
d="M423 153c0 -111 -109 -170 -208 -170c-105 0 -188 57 -200 166h149c4 -32 26 -46 57 -46c21 0 52 13 52 38c0 30 -34 44 -58 50c-29 8 -59 15 -88 23c-62 16 -106 74 -106 138c0 106 107 165 202 165c99 0 175 -55 184 -157h-146c-3 26 -18 37 -43 37
c-19 0 -47 -8 -47 -32c0 -34 52 -48 77 -55c58 -17 117 -26 152 -79c16 -24 23 -50 23 -78z" />
    <glyph glyph-name="t" unicode="t" horiz-adv-x="293" 
d="M285 387h-72v-387h-150v387h-73v113h73v167h150v-167h72v-113z" />
    <glyph glyph-name="u" unicode="u" horiz-adv-x="562" 
d="M512 0h-142v53c-27 -54 -75 -70 -132 -70s-108 19 -146 63c-42 48 -45 93 -45 155v299h150v-279c0 -58 16 -98 80 -98c60 0 85 43 85 98v279h150v-500z" />
    <glyph glyph-name="v" unicode="v" horiz-adv-x="483" 
d="M493 500l-180 -500h-143l-180 500h155l96 -312l97 312h155z" />
    <glyph glyph-name="w" unicode="w" horiz-adv-x="753" 
d="M753 500l-153 -500h-139l-85 323l-84 -323h-139l-153 500h154l76 -311l83 311h127l83 -311l76 311h154z" />
    <glyph glyph-name="x" unicode="x" horiz-adv-x="545" 
d="M555 0h-183l-100 155l-103 -155h-179l190 268l-168 232h179l81 -131l80 131h177l-168 -232z" />
    <glyph glyph-name="y" unicode="y" horiz-adv-x="496" 
d="M506 500l-251 -667h-158l79 192l-186 475h159l101 -290l97 290h159z" />
    <glyph glyph-name="z" unicode="z" horiz-adv-x="405" 
d="M389 0h-372v103l210 284h-210v113h372v-114l-196 -273h196v-113z" />
    <glyph glyph-name="braceleft" unicode="{" 
d="M402 -193c-23 1 -45 -2 -68 -2c-108 0 -158 31 -158 145v155c0 44 -8 77 -55 86v107c42 9 55 36 55 77v156c0 116 52 144 161 144c10 0 22 -2 32 -2h33v-112h-20c-51 0 -80 1 -80 -57v-138c0 -62 -8 -90 -60 -126c51 -33 60 -67 60 -126v-138c0 -59 29 -57 80 -57h20
v-112z" />
    <glyph glyph-name="bar" unicode="|" 
d="M313 -250h-126v1000h126v-1000z" />
    <glyph glyph-name="braceright" unicode="}" 
d="M401 182c-42 -9 -55 -36 -55 -77v-156c0 -113 -50 -144 -158 -144c-22 0 -44 3 -67 2v112h20c50 0 79 -1 79 57v138c0 62 8 90 60 126c-51 33 -60 67 -60 126v138c0 59 -30 57 -81 57h-18v112c23 -1 45 2 67 2c108 0 158 -32 158 -145v-155c0 -43 8 -77 55 -86v-107z" />
    <glyph glyph-name="asciitilde" unicode="~" horiz-adv-x="667" 
d="M577 705c-23 -48 -44 -91 -93 -116c-21 -10 -43 -17 -66 -17c-57 0 -130 51 -185 51c-42 0 -56 -28 -73 -62l-70 46c3 6 5 11 8 17c30 69 61 121 143 121c63 0 135 -51 191 -51c39 0 55 21 73 53z" />
    <glyph glyph-name="exclamdown" unicode="&#xa1;" horiz-adv-x="295" 
d="M225 347h-155v153h155v-153zM225 -167h-155v447h155v-447z" />
    <glyph glyph-name="cent" unicode="&#xa2;" horiz-adv-x="550" 
d="M497 293c-15 -83 -76 -152 -160 -170v-95h-124v95c-96 32 -160 110 -160 213c0 101 64 187 160 218v95h118v-91c82 -23 157 -92 166 -180h-155c-13 24 -37 36 -64 36c-42 0 -77 -35 -77 -77c0 -43 35 -75 77 -75c26 0 44 11 61 31h158z" />
    <glyph glyph-name="sterling" unicode="&#xa3;" horiz-adv-x="550" 
d="M553 170c0 -107 -98 -170 -197 -170h-320v133c39 0 126 -11 126 48c0 31 -20 52 -38 75h-116v120h44c-16 30 -25 51 -25 85c0 129 118 219 240 219c81 0 158 -36 201 -106c24 -39 29 -71 34 -116h-157c-4 43 -22 72 -69 72c-46 0 -79 -37 -79 -82c0 -30 12 -50 30 -72
h141v-120h-69c17 -19 29 -36 29 -62c0 -28 -15 -44 -35 -61h38c42 0 73 16 73 62c0 11 -2 21 -6 32h145c7 -20 10 -36 10 -57z" />
    <glyph glyph-name="fraction" unicode="&#x2044;" horiz-adv-x="145" 
d="M265 667l-280 -667h-105l280 667h105z" />
    <glyph glyph-name="yen" unicode="&#xa5;" horiz-adv-x="550" 
d="M539 667l-90 -211h59v-105h-104l-34 -79h111v-105h-124v-167h-163v167h-125v105h112l-38 89h-101v105h55l-86 201h169l96 -268l96 268h167z" />
    <glyph glyph-name="florin" unicode="&#x192;" horiz-adv-x="550" 
d="M506 731l-19 -120c-57 0 -74 -30 -82 -82h65l-20 -113h-65l-50 -282c-9 -50 -16 -101 -41 -146c-42 -77 -121 -117 -207 -117c-16 0 -33 1 -49 5l24 134c5 -1 11 -1 16 -1c74 0 90 39 102 106l52 301h-65l19 113h66l5 29c18 106 105 175 212 175c12 0 25 1 37 -2z" />
    <glyph glyph-name="section" unicode="&#xa7;" horiz-adv-x="550" 
d="M541 222c0 -65 -29 -102 -78 -142c30 -39 47 -78 47 -128c0 -127 -108 -196 -226 -196c-132 0 -241 75 -252 213h148c9 -54 49 -77 101 -77c35 0 82 17 82 59c0 39 -49 58 -79 72l-154 71c-70 32 -121 73 -121 157c0 66 35 113 86 151c-21 31 -28 63 -28 100
c0 122 107 178 216 178c111 0 212 -67 217 -185h-147c-11 38 -42 52 -79 52c-31 0 -63 -11 -63 -47c0 -30 29 -43 53 -54l164 -74c69 -31 113 -70 113 -150zM408 196c0 33 -36 49 -61 60l-166 75c-21 -9 -36 -25 -36 -49c0 -31 22 -45 48 -57l182 -84c19 13 33 32 33 55z
" />
    <glyph glyph-name="currency" unicode="&#xa4;" horiz-adv-x="667" 
d="M645 137l-68 -69l-102 102c-44 -29 -89 -45 -142 -45c-54 0 -95 17 -140 45l-102 -102l-69 69l103 102c-29 41 -45 87 -45 138c0 52 16 94 45 137l-104 104l69 69l104 -104c44 29 87 44 140 44s94 -14 138 -43l102 102l68 -69l-101 -101c29 -46 46 -85 46 -140
c0 -52 -16 -93 -44 -136zM471 376c0 76 -60 139 -137 139s-138 -62 -138 -139c0 -76 62 -138 138 -138s137 62 137 138z" />
    <glyph glyph-name="quotesingle" unicode="'" horiz-adv-x="223" 
d="M182 667l-24 -268h-93l-24 268h141z" />
    <glyph glyph-name="quotedblleft" unicode="&#x201c;" horiz-adv-x="485" 
d="M431 368h-155v190c0 56 30 109 92 109h63v-81c-27 0 -69 6 -69 -34v-30h69v-154zM209 368h-156v190c0 56 30 109 92 109h64v-81c-27 0 -70 5 -70 -34v-30h70v-154z" />
    <glyph glyph-name="guillemotleft" unicode="&#xab;" horiz-adv-x="368" 
d="M313 86l-116 115v115l116 118v-133l-47 -41l47 -42v-132zM149 86l-116 115v115l116 118v-133l-46 -41l46 -42v-132z" />
    <glyph glyph-name="guilsinglleft" unicode="&#x2039;" horiz-adv-x="189" 
d="M149 86l-116 115v115l116 125v-140l-46 -41l46 -42v-132z" />
    <glyph glyph-name="guilsinglright" unicode="&#x203a;" horiz-adv-x="189" 
d="M156 200l-116 -114v133l46 41l-46 42v132l116 -118v-116z" />
    <glyph glyph-name="fi" unicode="&#xfb01;" horiz-adv-x="544" 
d="M494 553h-150v114h150v-114zM494 0h-150v500h150v-500zM277 387h-64v-387h-150v387h-55v113h55v26c0 122 85 154 191 154h23v-113c-56 0 -64 -12 -64 -67h64v-113z" />
    <glyph glyph-name="fl" unicode="&#xfb02;" horiz-adv-x="544" 
d="M494 0h-150v667h150v-667zM277 387h-64v-387h-150v387h-55v113h55v26c0 122 85 154 191 154h23v-113c-56 0 -64 -12 -64 -67h64v-113z" />
    <glyph glyph-name="endash" unicode="&#x2013;" 
d="M467 281h-434v117h434v-117z" />
    <glyph glyph-name="dagger" unicode="&#x2020;" horiz-adv-x="550" 
d="M498 371h-149v-538h-148v538h-149v130h149v166h148v-166h149v-130z" />
    <glyph glyph-name="daggerdbl" unicode="&#x2021;" horiz-adv-x="550" 
d="M498 -1h-149v-166h-148v166h-149v130h149v242h-149v130h149v166h148v-166h149v-130h-149v-242h149v-130z" />
    <glyph glyph-name="periodcentered" unicode="&#xb7;" horiz-adv-x="173" 
d="M173 254h-173v172h173v-172z" />
    <glyph glyph-name="paragraph" unicode="&#xb6;" horiz-adv-x="662" 
d="M589 569h-73v-661h-107v661h-84v-661h-108v413c-4 0 -7 -1 -11 -1c-102 0 -179 65 -179 170c0 140 109 177 230 177h332v-98z" />
    <glyph glyph-name="bullet" unicode="&#x2022;" horiz-adv-x="667" 
d="M471 340c0 -75 -61 -140 -137 -140c-77 0 -138 64 -138 140s61 140 138 140c76 0 137 -65 137 -140z" />
    <glyph glyph-name="quotesinglbase" unicode="&#x201a;" horiz-adv-x="262" 
d="M209 -36c0 -56 -30 -109 -92 -109h-64v80c26 0 70 -5 70 34v31h-70v153h156v-189z" />
    <glyph glyph-name="quotedblbase" unicode="&#x201e;" horiz-adv-x="485" 
d="M431 -36c0 -56 -29 -109 -91 -109h-64v80c26 0 70 -5 70 34v31h-70v153h155v-189zM209 -36c0 -56 -30 -109 -92 -109h-64v80c26 0 70 -5 70 34v31h-70v153h156v-189z" />
    <glyph glyph-name="quotedblright" unicode="&#x201d;" horiz-adv-x="485" 
d="M431 477c0 -56 -29 -109 -91 -109h-64v81c27 0 70 -5 70 34v30h-70v154h155v-190zM209 477c0 -56 -30 -109 -92 -109h-64v81c27 0 70 -5 70 34v30h-70v154h156v-190z" />
    <glyph glyph-name="guillemotright" unicode="&#xbb;" horiz-adv-x="353" 
d="M319 200l-116 -114v133l47 41l-47 42v132l116 -118v-116zM156 200l-116 -114v133l46 41l-46 42v132l116 -118v-116z" />
    <glyph glyph-name="ellipsis" unicode="&#x2026;" horiz-adv-x="786" 
d="M733 0h-156v153h156v-153zM471 0h-156v153h156v-153zM209 0h-156v153h156v-153z" />
    <glyph glyph-name="perthousand" unicode="&#x2030;" horiz-adv-x="1167" 
d="M1137 148c0 -93 -71 -161 -163 -161c-93 0 -164 65 -164 159s68 164 163 164c93 0 164 -68 164 -162zM770 148c0 -93 -71 -161 -163 -161c-93 0 -164 65 -164 159c0 95 69 164 164 164c93 0 163 -69 163 -162zM593 667l-280 -667h-106l280 667h106zM357 519
c0 -93 -70 -162 -163 -162s-164 66 -164 160s69 163 163 163c92 0 164 -68 164 -161zM1033 148c0 32 -26 62 -59 62c-34 0 -60 -27 -60 -61s25 -63 60 -63c34 0 59 29 59 62zM666 148c0 33 -25 62 -59 62s-60 -28 -60 -61c0 -34 25 -63 60 -63s59 28 59 62zM253 519
c0 33 -26 61 -59 61c-34 0 -60 -27 -60 -61s25 -62 60 -62c34 0 59 29 59 62z" />
    <glyph glyph-name="questiondown" unicode="&#xbf;" horiz-adv-x="496" 
d="M356 347h-155v153h155v-153zM482 44c0 -135 -105 -224 -236 -224c-110 0 -216 74 -216 191c0 147 160 181 171 277h155c0 -127 -153 -171 -153 -258c0 -34 16 -56 52 -56c54 0 61 42 62 87h165v-17z" />
    <glyph glyph-name="grave" unicode="`" 
d="M344 617l-51 -74l-204 131l60 91z" />
    <glyph glyph-name="acute" unicode="&#xb4;" 
d="M411 674l-204 -131l-51 74l195 148z" />
    <glyph glyph-name="circumflex" unicode="&#x2c6;" 
d="M433 560h-141l-42 58l-41 -58h-142l133 149h104z" />
    <glyph glyph-name="tilde" unicode="&#x2dc;" 
d="M436 609c-32 -21 -68 -34 -107 -34c-49 0 -94 23 -142 23c-24 0 -46 -8 -68 -17l-55 81c31 17 65 32 101 32c51 0 98 -23 149 -23c27 0 42 5 67 16z" />
    <glyph glyph-name="macron" unicode="&#xaf;" 
d="M410 593h-320v87h320v-87z" />
    <glyph glyph-name="breve" unicode="&#x2d8;" 
d="M417 705c-7 -97 -77 -135 -167 -135s-160 38 -167 135h95c15 -35 39 -44 76 -44c32 0 56 13 68 44h95z" />
    <glyph glyph-name="dotaccent" unicode="&#x2d9;" 
d="M322 567h-144v136h144v-136z" />
    <glyph glyph-name="dieresis" unicode="&#xa8;" 
d="M422 567h-144v136h144v-136zM222 567h-144v136h144v-136z" />
    <glyph glyph-name="ring" unicode="&#x2da;" 
d="M363 662c0 -62 -51 -112 -113 -112s-113 50 -113 112s52 111 113 111s113 -49 113 -111zM293 662c0 23 -19 44 -43 44s-43 -20 -43 -44s18 -45 43 -45c24 0 43 21 43 45z" />
    <glyph glyph-name="cedilla" unicode="&#xb8;" 
d="M347 -123c0 -54 -45 -90 -97 -90c-51 0 -85 25 -91 77h60c7 -16 13 -25 31 -25c20 0 35 14 35 34c0 18 -13 31 -31 31c-12 0 -19 -5 -27 -14l-44 32l37 78h61l-26 -52c7 1 13 3 20 3c40 0 72 -35 72 -74z" />
    <glyph glyph-name="hungarumlaut" unicode="&#x2dd;" 
d="M471 687l-145 -144l-62 59l133 160zM303 687l-145 -144l-62 59l133 160z" />
    <glyph glyph-name="ogonek" unicode="&#x2db;" 
d="M369 -171c-27 -9 -49 -15 -78 -15c-54 0 -107 28 -107 88c0 46 41 75 75 98h75c-25 -13 -55 -32 -55 -64c0 -25 22 -44 46 -44c16 0 29 5 44 11v-74z" />
    <glyph glyph-name="caron" unicode="&#x2c7;" 
d="M433 709l-133 -149h-104l-129 149h141l42 -57l41 57h142z" />
    <glyph glyph-name="emdash" unicode="&#x2014;" horiz-adv-x="767" 
d="M767 193h-767v127h767v-127z" />
    <glyph glyph-name="AE" unicode="&#xc6;" horiz-adv-x="858" 
d="M817 0h-371v111h-194l-72 -111h-207l464 667h380v-150h-208v-103h201v-150h-201v-114h208v-150zM446 243v182l-125 -182h125z" />
    <glyph glyph-name="ordfeminine" unicode="&#xaa;" horiz-adv-x="367" 
d="M319 400h-79v23c-20 -26 -49 -32 -80 -32c-84 0 -137 61 -137 143c0 81 55 142 138 142c29 0 61 -7 79 -32v23h79v-267zM312 297h-282v33h282v-33zM235 534c0 38 -28 64 -65 64s-63 -29 -63 -65s28 -64 64 -64c38 0 64 28 64 65z" />
    <glyph glyph-name="Lslash" unicode="&#x141;" horiz-adv-x="437" 
d="M424 0h-367v216l-57 -41v142l57 41v309h170v-224l124 85v-142l-124 -85v-151h197v-150z" />
    <glyph glyph-name="Oslash" unicode="&#xd8;" horiz-adv-x="761" 
d="M733 333c0 -198 -158 -346 -354 -346c-60 0 -93 6 -148 30c-1 0 -2 1 -3 2l-56 -76l-106 78l55 75c-1 1 -1 2 -2 3c-61 73 -90 138 -90 234c0 199 154 347 352 347c64 0 92 -4 150 -32l59 78l106 -76l-58 -78c1 -1 1 -2 2 -3c61 -72 93 -139 93 -236zM563 332
c0 36 -10 71 -26 103l-214 -289c23 -8 35 -9 59 -9c108 0 181 91 181 195zM437 521c-21 8 -34 9 -56 9c-108 0 -182 -90 -182 -194c0 -34 8 -72 24 -103z" />
    <glyph glyph-name="OE" unicode="&#x152;" horiz-adv-x="971" 
d="M930 0h-371v43c-57 -40 -115 -56 -184 -56c-192 0 -346 152 -346 345c0 198 152 348 349 348c72 0 122 -14 181 -57v44h371v-150h-207v-103h200v-150h-200v-114h207v-150zM558 336c0 106 -69 194 -179 194c-112 0 -180 -92 -180 -198c0 -102 71 -195 178 -195
c112 0 181 92 181 199z" />
    <glyph glyph-name="ordmasculine" unicode="&#xba;" horiz-adv-x="367" 
d="M328 533c0 -82 -62 -142 -144 -142s-146 58 -146 141s62 143 145 143c82 0 145 -59 145 -142zM322 297h-277v33h277v-33zM245 533c0 35 -26 65 -62 65c-35 0 -61 -30 -61 -64c0 -36 25 -65 62 -65c36 0 61 29 61 64z" />
    <glyph glyph-name="ae" unicode="&#xe6;" horiz-adv-x="979" 
d="M952 241c0 -14 0 -24 -4 -38h-375c8 -59 56 -93 114 -93c44 0 68 16 97 48h151c-20 -47 -41 -82 -80 -115c-44 -38 -99 -60 -157 -60c-60 0 -103 20 -135 71v-54h-136v54c-25 -58 -91 -71 -147 -71c-157 0 -253 115 -253 267s102 267 257 267c62 0 110 -14 143 -70v53
h136v-53c32 50 76 70 135 70c152 0 254 -131 254 -276zM804 303c-16 57 -53 87 -112 87c-54 0 -106 -31 -116 -87h228zM427 250c0 76 -53 127 -128 127c-71 0 -122 -58 -122 -127c0 -71 56 -127 127 -127c72 0 123 56 123 127z" />
    <glyph glyph-name="dotlessi" unicode="&#x131;" horiz-adv-x="250" 
d="M200 0h-150v500h150v-500z" />
    <glyph glyph-name="lslash" unicode="&#x142;" horiz-adv-x="250" 
d="M250 361l-50 -38v-323h-150v254l-50 -38v104l50 38v309h150v-240l50 38v-104z" />
    <glyph glyph-name="oslash" unicode="&#xf8;" horiz-adv-x="595" 
d="M567 249c0 -153 -117 -266 -269 -266c-45 0 -67 5 -109 21l-58 -79l-95 72l55 74c-43 49 -64 113 -64 178c0 157 117 268 272 268c45 0 67 -5 109 -21l55 74l96 -69l-56 -75c43 -52 64 -109 64 -177zM417 251c0 21 -3 33 -10 52l-132 -177c7 -2 15 -3 22 -3
c72 0 120 58 120 128zM323 374c-8 2 -17 3 -25 3c-70 0 -121 -59 -121 -127c0 -23 3 -34 12 -55z" />
    <glyph glyph-name="oe" unicode="&#x153;" horiz-adv-x="966" 
d="M939 245c0 -14 -2 -28 -5 -42h-375c6 -60 55 -93 113 -93c43 0 68 15 97 46h152c-41 -102 -134 -173 -246 -173c-80 0 -139 25 -188 90c-14 -17 -27 -33 -45 -46c-42 -30 -98 -44 -149 -44c-154 0 -266 112 -266 266c0 158 112 268 269 268c76 0 145 -23 191 -86
c40 56 121 86 188 86c151 0 264 -124 264 -272zM789 303c-12 55 -58 87 -113 87c-54 0 -102 -32 -113 -87h226zM419 250c0 67 -53 127 -121 127c-69 0 -121 -58 -121 -126s52 -128 122 -128c69 0 120 60 120 127z" />
    <glyph glyph-name="germandbls" unicode="&#xdf;" horiz-adv-x="617" 
d="M590 205c0 -127 -109 -222 -233 -222c-72 0 -112 24 -160 75v-58h-150v385c0 80 1 148 57 211c50 55 124 88 198 88c106 0 212 -75 212 -188c0 -53 -21 -87 -64 -117c81 -19 140 -90 140 -174zM440 205c0 58 -48 84 -101 84h-81v112h30c44 0 76 24 76 70
c0 45 -35 73 -78 73c-69 0 -89 -57 -89 -117v-239h83c12 -41 34 -65 78 -65c46 0 82 36 82 82z" />
    <glyph glyph-name="Eth" unicode="&#xd0;" horiz-adv-x="662" 
d="M634 340c0 -193 -113 -340 -315 -340h-262v287h-57v120h57v260h224c60 0 122 -3 177 -29c118 -55 176 -171 176 -298zM464 331c0 106 -49 186 -163 186h-74v-110h123v-120h-123v-137h73c113 0 164 73 164 181z" />
    <glyph glyph-name="eth" unicode="&#xf0;" horiz-adv-x="595" 
d="M568 246c0 -76 -33 -152 -91 -201c-51 -44 -114 -61 -181 -61c-154 0 -269 109 -269 264c0 146 102 254 249 254c36 0 55 -6 88 -20c-12 26 -24 53 -39 78l-63 -20l-30 59l63 20c-12 20 -25 39 -40 58l95 26c15 -16 29 -32 41 -51l71 22l37 -59l-68 -21
c64 -100 137 -226 137 -348zM418 243c0 73 -46 131 -122 131c-74 0 -119 -51 -119 -123c0 -75 47 -128 123 -128c67 0 118 54 118 120z" />
    <glyph glyph-name="Scaron" unicode="&#x160;" horiz-adv-x="516" 
d="M468 883l-131 -150h-148l-128 150h158l46 -64l44 64h159zM490 195c0 -142 -99 -208 -233 -208c-133 0 -243 69 -243 212v21h171c0 -44 19 -90 70 -90c35 0 66 27 66 63c0 40 -39 60 -71 74c-26 11 -52 20 -77 31c-80 35 -147 90 -147 184c0 125 118 199 233 199
c67 0 136 -25 180 -77c34 -40 42 -79 45 -131h-169c-5 38 -19 65 -61 65c-29 0 -58 -21 -58 -52c0 -103 294 -82 294 -291z" />
    <glyph glyph-name="scaron" unicode="&#x161;" horiz-adv-x="445" 
d="M405 723l-133 -150h-104l-129 150h141l42 -58l41 58h142zM422 151c0 -109 -111 -168 -208 -168c-54 0 -107 17 -147 54c-35 33 -47 64 -52 112h149c4 -32 27 -45 58 -45c22 0 50 14 50 39c0 33 -41 41 -45 45c-7 4 -16 5 -24 7c-25 7 -51 13 -76 20
c-62 17 -107 73 -107 138c0 105 108 164 202 164c58 0 115 -21 152 -67c23 -29 30 -54 33 -90h-147c-2 27 -17 37 -43 37c-19 0 -47 -8 -47 -32c0 -80 252 -30 252 -214z" />
    <glyph glyph-name="Yacute" unicode="&#xdd;" horiz-adv-x="547" 
d="M466 818l-247 -108l-44 92l240 130zM557 667l-198 -424v-243h-170v243l-199 424h185l99 -268l100 268h183z" />
    <glyph glyph-name="yacute" unicode="&#xfd;" horiz-adv-x="496" 
d="M415 674l-203 -131l-51 74l195 148zM506 500l-251 -667h-158l79 192l-186 475h159l101 -290l97 290h159z" />
    <glyph glyph-name="Thorn" unicode="&#xde;" horiz-adv-x="578" 
d="M558 354c0 -64 -23 -129 -70 -173c-72 -67 -177 -58 -268 -58v-123h-163v667h163v-87c84 0 191 8 260 -49c52 -43 78 -110 78 -177zM388 353c0 23 -11 47 -29 61c-20 15 -53 16 -77 16h-62v-157h69c29 0 51 1 73 21c17 16 26 36 26 59z" />
    <glyph glyph-name="thorn" unicode="&#xfe;" horiz-adv-x="621" 
d="M594 243c0 -142 -100 -260 -246 -260c-59 0 -108 19 -148 63v-213h-150v834h150v-210c46 44 86 60 150 60c156 0 244 -127 244 -274zM444 253c0 70 -57 124 -126 124c-70 0 -126 -53 -126 -124c0 -73 52 -130 126 -130c75 0 126 57 126 130z" />
    <glyph glyph-name="Zcaron" unicode="&#x17d;" horiz-adv-x="457" 
d="M436 883l-132 -150h-148l-127 150h158l45 -64l45 64h159zM438 0h-421v112l230 405h-230v150h421v-138l-213 -379h213v-150z" />
    <glyph glyph-name="zcaron" unicode="&#x17e;" horiz-adv-x="405" 
d="M390 723l-133 -150h-104l-129 150h141l42 -58l41 58h142zM389 0h-372v102l211 285h-211v113h372v-114l-196 -273h196v-113z" />
    <glyph glyph-name="onehalf" unicode="&#xbd;" horiz-adv-x="900" 
d="M869 0h-310v82c17 10 35 20 52 31c45 29 140 107 140 166c0 22 -18 36 -39 36c-38 0 -46 -31 -47 -63h-110c1 35 5 65 26 94c31 43 84 62 136 62c70 0 149 -38 149 -118c0 -87 -78 -151 -140 -201h143v-89zM636 667l-280 -667h-92l280 667h92zM260 267h-115v311h-71v89
h186v-400z" />
    <glyph glyph-name="onequarter" unicode="&#xbc;" horiz-adv-x="901" 
d="M888 70h-48v-70h-110v70h-191v77l195 253h106v-247h48v-83zM636 667l-280 -667h-92l280 667h92zM260 267h-115v311h-71v89h186v-400zM741 149v126l-89 -126h89z" />
    <glyph glyph-name="onesuperior" unicode="&#xb9;" horiz-adv-x="374" 
d="M260 267h-115v311h-71v89h186v-400z" />
    <glyph glyph-name="threequarters" unicode="&#xbe;" horiz-adv-x="899" 
d="M886 70h-48v-70h-110v70h-190v77l194 253h106v-247h48v-83zM635 667l-281 -667h-91l280 667h92zM345 386c0 -83 -89 -128 -162 -128c-51 0 -113 18 -142 63c-13 21 -18 42 -20 67h116c6 -26 22 -37 48 -37c24 0 46 12 46 38c0 47 -68 38 -98 38v78c32 0 74 -1 74 43
c0 17 -9 33 -28 33c-22 0 -33 -12 -34 -34h-113c2 85 71 128 150 128c64 0 139 -36 139 -109c0 -39 -20 -67 -54 -85c44 -14 78 -46 78 -95zM739 149v126l-88 -126h88z" />
    <glyph glyph-name="threesuperior" unicode="&#xb3;" horiz-adv-x="372" 
d="M345 386c0 -83 -89 -128 -162 -128c-51 0 -113 18 -142 63c-13 21 -18 42 -20 67h116c6 -26 22 -37 48 -37c24 0 46 12 46 38c0 47 -68 38 -98 38v78c32 0 74 -1 74 43c0 17 -9 33 -28 33c-22 0 -33 -12 -34 -34h-113c2 85 71 128 150 128c64 0 139 -36 139 -109
c0 -39 -20 -67 -54 -85c44 -14 78 -46 78 -95z" />
    <glyph glyph-name="twosuperior" unicode="&#xb2;" horiz-adv-x="374" 
d="M343 267h-310v82c17 10 35 20 52 31c45 29 140 107 140 166c0 22 -18 36 -39 36c-38 0 -46 -31 -47 -63h-110c1 36 4 64 26 94c31 43 84 62 136 62c70 0 149 -38 149 -118c0 -87 -79 -151 -140 -201h143v-89z" />
    <glyph glyph-name="brokenbar" unicode="&#xa6;" 
d="M333 312h-165v355h165v-355zM333 -167h-165v320h165v-320z" />
    <glyph glyph-name="minus" unicode="&#x2212;" horiz-adv-x="550" 
d="M509 277h-467v113h467v-113z" />
    <glyph glyph-name="multiply" unicode="&#xd7;" horiz-adv-x="550" 
d="M491 196l-78 -79l-138 138l-138 -138l-78 79l138 137l-138 138l78 78l138 -137l138 137l78 -78l-138 -138z" />
    <glyph glyph-name="Adieresis" unicode="&#xc4;" horiz-adv-x="660" 
d="M517 733h-157v150h157v-150zM300 733h-157v150h157v-150zM664 0h-185l-32 97h-232l-35 -97h-183l267 667h135zM401 232l-69 228l-70 -228h139z" />
    <glyph glyph-name="Aring" unicode="&#xc5;" horiz-adv-x="660" 
d="M446 828c0 -63 -53 -115 -116 -115s-115 52 -115 115c0 64 52 114 115 114s116 -50 116 -114zM664 0h-185l-32 97h-232l-35 -97h-183l267 667h135zM372 828c0 23 -18 43 -42 43s-41 -20 -41 -43s18 -43 41 -43c24 0 42 20 42 43zM401 232l-69 228l-70 -228h139z" />
    <glyph glyph-name="Ccedilla" unicode="&#xc7;" horiz-adv-x="736" 
d="M717 249c-36 -148 -160 -262 -316 -262l-18 -34c6 1 13 2 19 2c45 0 78 -33 78 -78c0 -63 -49 -106 -110 -106c-58 0 -95 33 -101 91h70c7 -18 17 -25 36 -25s33 14 33 33s-15 33 -34 33c-13 0 -21 -5 -29 -14l-51 31l36 70h-3c-172 24 -298 172 -298 345
c0 195 155 345 349 345c123 0 230 -57 296 -161c25 -39 36 -60 43 -106h-178c-26 69 -87 117 -162 117c-108 0 -178 -92 -178 -195s70 -198 179 -198c76 0 129 46 161 112h178z" />
    <glyph glyph-name="Eacute" unicode="&#xc9;" horiz-adv-x="469" 
d="M387 818l-246 -108l-44 92l240 130zM427 0h-370v667h370v-150h-207v-103h201v-150h-201v-114h207v-150z" />
    <glyph glyph-name="Ntilde" unicode="&#xd1;" horiz-adv-x="676" 
d="M544 786c-35 -23 -80 -41 -122 -41c-50 0 -97 23 -146 23c-28 0 -49 -11 -74 -23l-70 89c35 24 76 40 119 40c51 0 99 -21 149 -21c31 0 52 7 80 21zM619 0h-148l-258 405l7 -405h-163v667h146l260 -420l-7 420h163v-667z" />
    <glyph glyph-name="Odieresis" unicode="&#xd6;" horiz-adv-x="761" 
d="M567 733h-156v150h156v-150zM351 733h-157v150h157v-150zM733 333c0 -198 -159 -346 -354 -346s-350 149 -350 345c0 198 153 348 350 348c196 0 354 -149 354 -347zM563 332c0 105 -72 198 -182 198c-109 0 -182 -90 -182 -195c0 -107 73 -198 184 -198
c107 0 180 92 180 195z" />
    <glyph glyph-name="Udieresis" unicode="&#xdc;" horiz-adv-x="612" 
d="M493 733h-157v150h157v-150zM276 733h-157v150h157v-150zM562 263c0 -79 -9 -146 -66 -204c-51 -52 -117 -72 -189 -72c-71 0 -139 20 -190 71c-61 61 -67 122 -67 205v404h170v-404c0 -63 11 -126 87 -126c79 0 85 61 85 126v404h170v-404z" />
    <glyph glyph-name="aacute" unicode="&#xe1;" horiz-adv-x="627" 
d="M442 674l-203 -131l-51 74l195 148zM577 0h-141v54c-29 -58 -96 -71 -155 -71c-157 0 -254 114 -254 267s101 268 257 268c61 0 120 -14 152 -71v53h141v-500zM427 251c0 72 -54 126 -126 126c-71 0 -124 -57 -124 -127c0 -71 54 -127 125 -127c74 0 125 55 125 128z" />
    <glyph glyph-name="agrave" unicode="&#xe0;" horiz-adv-x="627" 
d="M440 617l-51 -74l-204 131l59 91zM577 0h-141v54c-29 -58 -96 -71 -155 -71c-157 0 -254 114 -254 267s101 268 257 268c61 0 120 -14 152 -71v53h141v-500zM427 251c0 72 -54 126 -126 126c-71 0 -124 -57 -124 -127c0 -71 54 -127 125 -127c74 0 125 55 125 128z" />
    <glyph glyph-name="acircumflex" unicode="&#xe2;" horiz-adv-x="627" 
d="M488 560h-142l-41 58l-41 -58h-143l133 149h104zM577 0h-141v54c-29 -58 -96 -71 -155 -71c-157 0 -254 114 -254 267s101 268 257 268c61 0 120 -14 152 -71v53h141v-500zM427 251c0 72 -54 126 -126 126c-71 0 -124 -57 -124 -127c0 -71 54 -127 125 -127
c74 0 125 55 125 128z" />
    <glyph glyph-name="adieresis" unicode="&#xe4;" horiz-adv-x="627" 
d="M494 567h-143v136h143v-136zM294 567h-143v136h143v-136zM577 0h-141v54c-29 -58 -96 -71 -155 -71c-157 0 -254 114 -254 267s101 268 257 268c61 0 120 -14 152 -71v53h141v-500zM427 251c0 72 -54 126 -126 126c-71 0 -124 -57 -124 -127c0 -71 54 -127 125 -127
c74 0 125 55 125 128z" />
    <glyph glyph-name="atilde" unicode="&#xe3;" horiz-adv-x="627" 
d="M500 615c-33 -23 -71 -38 -111 -38c-45 0 -88 19 -133 19c-26 0 -48 -10 -71 -20l-58 80c32 18 67 35 105 35c46 0 91 -18 137 -18c30 0 46 6 74 18zM577 0h-141v54c-29 -58 -96 -71 -155 -71c-157 0 -254 114 -254 267s101 268 257 268c61 0 120 -14 152 -71v53h141
v-500zM427 251c0 72 -54 126 -126 126c-71 0 -124 -57 -124 -127c0 -71 54 -127 125 -127c74 0 125 55 125 128z" />
    <glyph glyph-name="aring" unicode="&#xe5;" horiz-adv-x="627" 
d="M425 662c0 -62 -51 -112 -113 -112s-112 50 -112 112s51 111 112 111c62 0 113 -49 113 -111zM577 0h-141v54c-29 -58 -96 -71 -155 -71c-157 0 -254 114 -254 267s101 268 257 268c61 0 120 -14 152 -71v53h141v-500zM355 662c0 24 -19 44 -43 44s-43 -21 -43 -44
c0 -24 19 -45 43 -45c25 0 43 21 43 45zM427 251c0 72 -54 126 -126 126c-71 0 -124 -57 -124 -127c0 -71 54 -127 125 -127c74 0 125 55 125 128z" />
    <glyph glyph-name="ccedilla" unicode="&#xe7;" horiz-adv-x="574" 
d="M557 190c-27 -115 -125 -199 -243 -206l-18 -36c6 1 13 3 20 3c40 0 72 -35 72 -74c0 -54 -45 -90 -97 -90c-51 0 -84 26 -91 77h61c5 -16 13 -25 30 -25c20 0 35 13 35 34c0 18 -13 31 -31 31c-12 0 -19 -5 -27 -14l-44 32l31 64c-132 19 -228 132 -228 265
c0 149 115 266 264 266c128 0 239 -83 265 -210h-151c-19 44 -61 70 -109 70c-73 0 -119 -59 -119 -129s47 -125 119 -125c51 0 83 25 110 67h151z" />
    <glyph glyph-name="eacute" unicode="&#xe9;" horiz-adv-x="578" 
d="M410 674l-204 -131l-51 74l195 148zM551 244c0 -14 -1 -27 -4 -41h-375c7 -58 53 -93 110 -93c40 0 64 11 92 39l7 7h152c-43 -101 -130 -173 -243 -173c-147 0 -263 120 -263 266c0 145 112 268 260 268c154 0 264 -122 264 -273zM401 303c-11 55 -59 87 -113 87
c-56 0 -100 -31 -112 -87h225z" />
    <glyph glyph-name="egrave" unicode="&#xe8;" horiz-adv-x="578" 
d="M423 617l-51 -74l-204 131l60 91zM551 244c0 -14 -1 -27 -4 -41h-375c7 -58 53 -93 110 -93c40 0 64 11 92 39l7 7h152c-43 -101 -130 -173 -243 -173c-147 0 -263 120 -263 266c0 145 112 268 260 268c154 0 264 -122 264 -273zM401 303c-11 55 -59 87 -113 87
c-56 0 -100 -31 -112 -87h225z" />
    <glyph glyph-name="ecircumflex" unicode="&#xea;" horiz-adv-x="578" 
d="M472 560h-141l-42 58l-41 -58h-142l133 149h104zM551 244c0 -14 -1 -27 -4 -41h-375c7 -58 53 -93 110 -93c40 0 64 11 92 39l7 7h152c-43 -101 -130 -173 -243 -173c-147 0 -263 120 -263 266c0 145 112 268 260 268c154 0 264 -122 264 -273zM401 303
c-11 55 -59 87 -113 87c-56 0 -100 -31 -112 -87h225z" />
    <glyph glyph-name="edieresis" unicode="&#xeb;" horiz-adv-x="578" 
d="M465 567h-144v136h144v-136zM265 567h-144v136h144v-136zM551 244c0 -14 -1 -27 -4 -41h-375c7 -58 53 -93 110 -93c40 0 64 11 92 39l7 7h152c-43 -101 -130 -173 -243 -173c-147 0 -263 120 -263 266c0 145 112 268 260 268c154 0 264 -122 264 -273zM401 303
c-11 55 -59 87 -113 87c-56 0 -100 -31 -112 -87h225z" />
    <glyph glyph-name="iacute" unicode="&#xed;" horiz-adv-x="250" 
d="M252 674l-203 -131l-51 74l195 148zM200 0h-150v500h150v-500z" />
    <glyph glyph-name="igrave" unicode="&#xec;" horiz-adv-x="250" 
d="M252 617l-51 -74l-203 131l59 91zM200 0h-150v500h150v-500z" />
    <glyph glyph-name="icircumflex" unicode="&#xee;" horiz-adv-x="250" 
d="M252 560h-91l-36 71l-35 -71h-92l92 149h72zM200 0h-150v500h150v-500z" />
    <glyph glyph-name="idieresis" unicode="&#xef;" horiz-adv-x="250" 
d="M249 573h-100v123h100v-123zM101 573h-100v123h100v-123zM200 0h-150v500h150v-500z" />
    <glyph glyph-name="ntilde" unicode="&#xf1;" horiz-adv-x="560" 
d="M467 615c-33 -23 -71 -38 -112 -38c-45 0 -87 19 -132 19c-26 0 -48 -9 -72 -20l-58 80c33 18 68 35 106 35c46 0 90 -18 136 -18c31 0 46 6 74 18zM513 0h-150v273c0 56 -13 104 -78 104c-63 0 -85 -40 -85 -98v-279h-150v500h142v-53c35 50 76 70 137 70
c49 0 99 -17 134 -51c46 -45 50 -91 50 -153v-313z" />
    <glyph glyph-name="oacute" unicode="&#xf3;" horiz-adv-x="595" 
d="M418 674l-204 -131l-51 74l196 148zM567 250c0 -154 -116 -267 -269 -267s-271 109 -271 264c0 156 114 270 270 270c153 0 270 -113 270 -267zM417 250c0 67 -49 127 -119 127s-121 -58 -121 -126c0 -70 49 -128 121 -128c71 0 119 58 119 127z" />
    <glyph glyph-name="ograve" unicode="&#xf2;" horiz-adv-x="595" 
d="M431 617l-51 -74l-203 131l59 91zM567 250c0 -154 -116 -267 -269 -267s-271 109 -271 264c0 156 114 270 270 270c153 0 270 -113 270 -267zM417 250c0 67 -49 127 -119 127s-121 -58 -121 -126c0 -70 49 -128 121 -128c71 0 119 58 119 127z" />
    <glyph glyph-name="ocircumflex" unicode="&#xf4;" horiz-adv-x="595" 
d="M481 560h-142l-41 58l-41 -58h-143l133 149h104zM567 250c0 -154 -116 -267 -269 -267s-271 109 -271 264c0 156 114 270 270 270c153 0 270 -113 270 -267zM417 250c0 67 -49 127 -119 127s-121 -58 -121 -126c0 -70 49 -128 121 -128c71 0 119 58 119 127z" />
    <glyph glyph-name="odieresis" unicode="&#xf6;" horiz-adv-x="595" 
d="M469 567h-143v136h143v-136zM269 567h-143v136h143v-136zM567 250c0 -154 -116 -267 -269 -267s-271 109 -271 264c0 156 114 270 270 270c153 0 270 -113 270 -267zM417 250c0 67 -49 127 -119 127s-121 -58 -121 -126c0 -70 49 -128 121 -128c71 0 119 58 119 127z" />
    <glyph glyph-name="otilde" unicode="&#xf5;" horiz-adv-x="595" 
d="M484 615c-33 -23 -71 -38 -111 -38c-45 0 -88 19 -133 19c-26 0 -48 -9 -71 -20l-58 80c32 18 67 35 105 35c46 0 91 -18 137 -18c30 0 46 6 73 18zM567 250c0 -154 -116 -267 -269 -267s-271 109 -271 264c0 156 114 270 270 270c153 0 270 -113 270 -267zM417 250
c0 67 -49 127 -119 127s-121 -58 -121 -126c0 -70 49 -128 121 -128c71 0 119 58 119 127z" />
    <glyph glyph-name="uacute" unicode="&#xfa;" horiz-adv-x="562" 
d="M402 674l-204 -131l-51 74l195 148zM512 0h-142v53c-27 -54 -75 -70 -132 -70s-108 19 -146 63c-42 48 -45 93 -45 155v299h150v-279c0 -58 16 -98 80 -98c60 0 85 43 85 98v279h150v-500z" />
    <glyph glyph-name="ugrave" unicode="&#xf9;" horiz-adv-x="562" 
d="M415 617l-51 -74l-204 131l60 91zM512 0h-142v53c-27 -54 -75 -70 -132 -70s-108 19 -146 63c-42 48 -45 93 -45 155v299h150v-279c0 -58 16 -98 80 -98c60 0 85 43 85 98v279h150v-500z" />
    <glyph glyph-name="ucircumflex" unicode="&#xfb;" horiz-adv-x="562" 
d="M464 560h-141l-42 58l-41 -58h-142l133 149h104zM512 0h-142v53c-27 -54 -75 -70 -132 -70s-108 19 -146 63c-42 48 -45 93 -45 155v299h150v-279c0 -58 16 -98 80 -98c60 0 85 43 85 98v279h150v-500z" />
    <glyph glyph-name="udieresis" unicode="&#xfc;" horiz-adv-x="562" 
d="M451 567h-143v136h143v-136zM251 567h-143v136h143v-136zM512 0h-142v53c-27 -54 -75 -70 -132 -70s-108 19 -146 63c-42 48 -45 93 -45 155v299h150v-279c0 -58 16 -98 80 -98c60 0 85 43 85 98v279h150v-500z" />
    <glyph glyph-name="degree" unicode="&#xb0;" 
d="M404 510c0 -85 -70 -152 -154 -152s-154 67 -154 152c0 84 71 151 154 151s154 -67 154 -151zM328 510c0 43 -36 76 -78 76s-78 -33 -78 -76s36 -77 78 -77s78 34 78 77z" />
    <glyph glyph-name="registered" unicode="&#xae;" horiz-adv-x="513" 
d="M469 557c0 -117 -95 -212 -212 -212s-212 95 -212 212s95 212 212 212s212 -95 212 -212zM429 557c0 95 -77 172 -172 172s-173 -76 -173 -172s77 -173 173 -173s172 78 172 173zM357 447h-73l-50 67v-67h-62v220h75c54 0 101 -15 101 -77c0 -33 -20 -63 -53 -70z
M289 586c0 22 -18 28 -37 28h-20v-56h20c18 0 37 7 37 28z" />
    <glyph glyph-name="copyright" unicode="&#xa9;" horiz-adv-x="747" 
d="M720 333c0 -192 -156 -346 -347 -346s-346 155 -346 346s154 347 346 347s347 -155 347 -347zM658 333c0 158 -126 288 -285 288c-158 0 -285 -131 -285 -288s127 -287 285 -287s285 129 285 287zM586 283c-24 -96 -110 -158 -208 -158c-118 0 -217 88 -217 209
c0 119 98 207 215 207c94 0 194 -63 210 -160h-110c-17 42 -54 70 -100 70c-66 0 -110 -53 -110 -117c0 -63 44 -119 110 -119c47 0 80 27 100 68h110z" />
    <glyph glyph-name="trademark" unicode="&#x2122;" horiz-adv-x="817" 
d="M764 287h-106l4 262l-86 -262h-75l-85 262l3 -262h-105v380h143l82 -239l80 239h145v-380zM290 576h-83v-289h-114v289h-83v91h280v-91z" />
    <glyph glyph-name="notequal" unicode="&#x2260;" 
d="M467 174h-241l-49 -97h-100l48 97h-91v114h142l35 68h-177v114h229l54 108h100l-54 -108h104v-114h-155l-35 -68h190v-114z" />
    <glyph glyph-name="infinity" unicode="&#x221e;" horiz-adv-x="667" 
d="M650 340c0 -95 -67 -163 -162 -163c-63 0 -112 33 -151 80c-43 -48 -92 -80 -158 -80c-95 0 -162 67 -162 162c0 94 66 163 161 163c65 0 111 -34 153 -80c40 47 93 80 156 80c95 0 163 -66 163 -162zM519 340c0 28 -25 48 -52 48c-32 0 -54 -25 -71 -49
c17 -24 39 -48 71 -48c28 0 52 20 52 49zM271 339c-18 24 -40 49 -72 49c-27 0 -52 -21 -52 -49s26 -49 53 -49c31 0 54 26 71 49z" />
    <glyph glyph-name="plusminus" unicode="&#xb1;" 
d="M467 356h-154v-154h-126v154h-154v117h154v154h126v-154h154v-117zM467 51h-434v117h434v-117z" />
    <glyph glyph-name="lessequal" unicode="&#x2264;" 
d="M467 145l-434 207v107l434 207v-119l-300 -142l299 -142zM467 3h-434v114h434v-114z" />
    <glyph glyph-name="greaterequal" unicode="&#x2265;" 
d="M467 352l-434 -207v118l300 143l-299 141l-1 119l434 -208v-106zM467 3h-434v114h434v-114z" />
    <glyph glyph-name="mu" unicode="&#xb5;" 
d="M474 0h-126v58c-21 -43 -48 -68 -98 -68c-46 0 -74 22 -96 61v-224h-126v653h126v-255c0 -69 18 -135 99 -135c80 0 95 73 95 139v251h126v-480z" />
    <glyph glyph-name="partialdiff" unicode="&#x2202;" 
d="M486 268c0 -151 -83 -277 -245 -277c-128 0 -231 100 -231 229c0 117 87 212 206 212c47 0 90 -13 123 -47c-51 117 -163 158 -282 170l16 110c106 -12 204 -35 286 -107c86 -74 127 -178 127 -290zM348 217c0 61 -42 109 -105 109h-10c-8 0 -23 -5 -30 -8
c-41 -18 -63 -58 -63 -101c0 -60 41 -112 104 -112s104 51 104 112z" />
    <glyph glyph-name="summation" unicode="&#x2211;" horiz-adv-x="667" 
d="M628 -250h-607v127l244 390l-244 356v127h598v-246h-114l-13 132h-328l250 -369l-250 -403h337l8 135h119v-249z" />
    <glyph glyph-name="product" unicode="&#x220f;" horiz-adv-x="731" 
d="M692 -250h-291v114h80v772h-231v-772h79v-114h-289v114h83v772h-83v114h652v-114h-82v-772h82v-114z" />
    <glyph glyph-name="pi" unicode="&#x3c0;" horiz-adv-x="662" 
d="M624 368h-75v-368h-127v368h-182v-368h-126v368h-77v114h587v-114z" />
    <glyph glyph-name="integral" unicode="&#x222b;" 
d="M451 740l-23 -113c-19 6 -36 10 -56 10c-46 0 -57 -30 -57 -71v-61v-66v-419c0 -27 0 -54 -1 -82c-1 -48 -2 -90 -34 -129c-36 -44 -83 -59 -139 -59c-31 0 -61 4 -92 10l23 113c19 -6 35 -10 55 -10c58 0 58 41 58 89v44v484c0 27 0 55 1 82c1 49 2 90 34 130
c37 45 85 58 141 58c31 0 60 -5 90 -10z" />
    <glyph glyph-name="Omega" unicode="&#x3a9;" horiz-adv-x="667" 
d="M638 0h-269v101c44 25 75 49 100 93c27 46 37 105 37 158c0 102 -56 217 -172 217s-173 -114 -173 -217c0 -112 38 -196 138 -251v-101h-270v114h138c-43 27 -75 51 -101 96c-27 47 -38 102 -38 156c0 177 124 317 305 317s305 -140 305 -317c0 -74 -18 -142 -69 -198
c-20 -22 -44 -38 -69 -54h138v-114z" />
    <glyph glyph-name="logicalnot" unicode="&#xac;" 
d="M467 0h-127v153h-307v114h434v-267z" />
    <glyph glyph-name="radical" unicode="&#x221a;" horiz-adv-x="667" 
d="M667 713h-180l-168 -713h-167l-58 272h-94v114h198l19 -87c10 -46 13 -98 15 -145h10c6 98 24 198 46 293l89 380h290v-114z" />
    <glyph glyph-name="approxequal" unicode="&#x2248;" 
d="M493 484c-23 -49 -43 -92 -93 -117c-20 -10 -42 -16 -65 -16c-31 0 -72 17 -101 27c-25 9 -57 24 -84 24c-42 0 -56 -28 -73 -62l-70 46c29 70 64 138 151 138c63 0 135 -51 190 -51c39 0 55 20 73 52zM493 283c-23 -49 -43 -92 -93 -117c-20 -10 -42 -16 -65 -16
c-31 0 -72 17 -101 27c-25 9 -57 24 -84 24c-41 0 -56 -29 -73 -62l-70 46c29 70 64 138 151 138c63 0 135 -51 191 -51c38 0 54 21 72 52z" />
    <glyph glyph-name="Delta" unicode="&#x394;" horiz-adv-x="667" 
d="M650 0h-633l246 667h137zM466 115l-134 397l-134 -397h268z" />
    <glyph glyph-name="nbspace" unicode="&#xa0;" horiz-adv-x="333" 
 />
    <glyph glyph-name="Agrave" unicode="&#xc0;" horiz-adv-x="660" 
d="M476 802l-45 -92l-246 108l50 114zM664 0h-185l-32 97h-232l-35 -97h-183l267 667h135zM401 232l-69 228l-70 -228h139z" />
    <glyph glyph-name="Atilde" unicode="&#xc3;" horiz-adv-x="660" 
d="M536 786c-34 -23 -81 -41 -122 -41c-50 0 -97 23 -146 23c-27 0 -50 -11 -74 -23l-70 89c36 24 77 40 120 40c50 0 98 -21 148 -21c31 0 52 7 80 21zM664 0h-185l-32 97h-232l-35 -97h-183l267 667h135zM401 232l-69 228l-70 -228h139z" />
    <glyph glyph-name="Otilde" unicode="&#xd5;" horiz-adv-x="761" 
d="M586 786c-34 -23 -81 -41 -122 -41c-49 0 -97 23 -146 23c-27 0 -50 -11 -74 -23l-69 89c36 24 76 40 119 40c50 0 98 -21 148 -21c32 0 52 7 80 21zM733 333c0 -198 -159 -346 -354 -346s-350 149 -350 345c0 198 153 348 350 348c196 0 354 -149 354 -347zM563 332
c0 105 -72 198 -182 198c-109 0 -182 -90 -182 -195c0 -107 73 -198 184 -198c107 0 180 92 180 195z" />
    <glyph glyph-name="divide" unicode="&#xf7;" 
d="M323 510c0 -40 -33 -73 -73 -73s-73 33 -73 73s33 73 73 73s73 -33 73 -73zM467 281h-434v117h434v-117zM323 168c0 -40 -34 -72 -73 -72s-73 32 -73 72c0 41 32 73 73 73c40 0 73 -33 73 -73z" />
    <glyph glyph-name="lozenge" unicode="&#x25ca;" horiz-adv-x="667" 
d="M593 334l-260 -360l-259 360l259 359zM445 334l-112 153l-111 -153l111 -154z" />
    <glyph glyph-name="ydieresis" unicode="&#xff;" horiz-adv-x="496" 
d="M420 567h-144v136h144v-136zM220 567h-144v136h144v-136zM506 500l-251 -667h-158l79 192l-186 475h159l101 -290l97 290h159z" />
    <glyph glyph-name="Ydieresis" unicode="&#x178;" horiz-adv-x="547" 
d="M460 733h-156v150h156v-150zM244 733h-157v150h157v-150zM557 667l-198 -424v-243h-170v243l-199 424h185l99 -268l100 268h183z" />
    <glyph glyph-name="Acircumflex" unicode="&#xc2;" horiz-adv-x="660" 
d="M534 733h-158l-46 64l-44 -64h-159l131 150h148zM664 0h-185l-32 97h-232l-35 -97h-183l267 667h135zM401 232l-69 228l-70 -228h139z" />
    <glyph glyph-name="Ecircumflex" unicode="&#xca;" horiz-adv-x="469" 
d="M425 733h-141l-42 58l-41 -58h-142l133 150h104zM427 0h-370v667h370v-150h-207v-103h201v-150h-201v-114h207v-150z" />
    <glyph glyph-name="Aacute" unicode="&#xc1;" horiz-adv-x="660" 
d="M476 818l-247 -108l-44 92l240 130zM664 0h-185l-32 97h-232l-35 -97h-183l267 667h135zM401 232l-69 228l-70 -228h139z" />
    <glyph glyph-name="Edieresis" unicode="&#xcb;" horiz-adv-x="469" 
d="M429 733h-157v150h157v-150zM212 733h-157v150h157v-150zM427 0h-370v667h370v-150h-207v-103h201v-150h-201v-114h207v-150z" />
    <glyph glyph-name="Egrave" unicode="&#xc8;" horiz-adv-x="469" 
d="M387 802l-44 -92l-246 108l50 114zM427 0h-370v667h370v-150h-207v-103h201v-150h-201v-114h207v-150z" />
    <glyph glyph-name="Iacute" unicode="&#xcd;" horiz-adv-x="283" 
d="M287 818l-246 -108l-45 92l240 130zM227 0h-170v667h170v-667z" />
    <glyph glyph-name="Icircumflex" unicode="&#xce;" horiz-adv-x="283" 
d="M290 733h-108l-40 77l-39 -77h-110l96 150h108zM227 0h-170v667h170v-667z" />
    <glyph glyph-name="Idieresis" unicode="&#xcf;" horiz-adv-x="283" 
d="M278 733h-111v150h111v-150zM116 733h-111v150h111v-150zM227 0h-170v667h170v-667z" />
    <glyph glyph-name="Igrave" unicode="&#xcc;" horiz-adv-x="283" 
d="M287 802l-44 -92l-247 108l51 114zM227 0h-170v667h170v-667z" />
    <glyph glyph-name="Oacute" unicode="&#xd3;" horiz-adv-x="761" 
d="M526 818l-246 -108l-45 92l240 130zM733 333c0 -198 -159 -346 -354 -346s-350 149 -350 345c0 198 153 348 350 348c196 0 354 -149 354 -347zM563 332c0 105 -72 198 -182 198c-109 0 -182 -90 -182 -195c0 -107 73 -198 184 -198c107 0 180 92 180 195z" />
    <glyph glyph-name="Ocircumflex" unicode="&#xd4;" horiz-adv-x="761" 
d="M584 733h-158l-45 64l-45 -64h-159l132 150h148zM733 333c0 -198 -159 -346 -354 -346s-350 149 -350 345c0 198 153 348 350 348c196 0 354 -149 354 -347zM563 332c0 105 -72 198 -182 198c-109 0 -182 -90 -182 -195c0 -107 73 -198 184 -198c107 0 180 92 180 195z
" />
    <glyph glyph-name="apple" unicode="&#xf8ff;" horiz-adv-x="825" 
d="M456 305l-36 -84h-100c30 -50 82 -84 147 -84c76 0 129 46 161 112h178c-38 -158 -175 -262 -337 -262c-155 0 -285 96 -332 234h-130l36 84h76c-1 10 -1 20 -1 30c0 9 0 17 1 26h-112l36 85h93c46 138 176 234 331 234c123 0 230 -57 296 -161c25 -39 36 -60 43 -106
h-178c-26 69 -87 117 -162 117c-66 0 -117 -34 -148 -84h193l-36 -85h-185c-1 -9 -2 -17 -2 -26c0 -10 1 -20 2 -30h166z" />
    <glyph glyph-name="Ograve" unicode="&#xd2;" horiz-adv-x="761" 
d="M526 802l-44 -92l-247 108l51 114zM733 333c0 -198 -159 -346 -354 -346s-350 149 -350 345c0 198 153 348 350 348c196 0 354 -149 354 -347zM563 332c0 105 -72 198 -182 198c-109 0 -182 -90 -182 -195c0 -107 73 -198 184 -198c107 0 180 92 180 195z" />
    <glyph glyph-name="Uacute" unicode="&#xda;" horiz-adv-x="612" 
d="M451 818l-246 -108l-44 92l240 130zM562 263c0 -79 -9 -146 -66 -204c-51 -52 -117 -72 -189 -72c-71 0 -139 20 -190 71c-61 61 -67 122 -67 205v404h170v-404c0 -63 11 -126 87 -126c79 0 85 61 85 126v404h170v-404z" />
    <glyph glyph-name="Ucircumflex" unicode="&#xdb;" horiz-adv-x="612" 
d="M510 733h-158l-46 64l-44 -64h-160l132 150h148zM562 263c0 -79 -9 -146 -66 -204c-51 -52 -117 -72 -189 -72c-71 0 -139 20 -190 71c-61 61 -67 122 -67 205v404h170v-404c0 -63 11 -126 87 -126c79 0 85 61 85 126v404h170v-404z" />
    <glyph glyph-name="Ugrave" unicode="&#xd9;" horiz-adv-x="612" 
d="M451 802l-44 -92l-246 108l50 114zM562 263c0 -79 -9 -146 -66 -204c-51 -52 -117 -72 -189 -72c-71 0 -139 20 -190 71c-61 61 -67 122 -67 205v404h170v-404c0 -63 11 -126 87 -126c79 0 85 61 85 126v404h170v-404z" />
    </font>
</defs>
</svg>
